<svg aria-hidden="true" style="width:0;height:0;position:absolute;overflow:hidden" xmlns="http://www.w3.org/2000/svg"><defs><symbol id="icon-search" viewBox="0 0 36 32"><path d="m35.866 27.014-7.081-6.084a1.854 1.854 0 0 0-1.207-.427H26.42c1.96-2.154 3.125-4.863 3.125-7.811C29.545 5.681 22.933 0 14.772 0S-.001 5.681-.001 12.692s6.612 12.692 14.773 12.692c3.43 0 6.584-1.001 9.091-2.685v.995c0 .391.178.763.497 1.037l7.081 6.084c.668.574 1.747.574 2.408 0l2.01-1.727c.668-.574.668-1.501.007-2.075zm-21.093-6.511c-5.021 0-9.091-3.49-9.091-7.811 0-4.314 4.063-7.811 9.091-7.811 5.021 0 9.091 3.49 9.091 7.811 0 4.314-4.062 7.811-9.091 7.811z"/></symbol><symbol id="icon-facebook" viewBox="0 0 32 32"><path fill="#fafafa" style="fill:var(--color1,#fafafa)" d="M31 16.463C31 7.976 24.062 1.1 15.5 1.1S0 7.976 0 16.463c0 7.668 5.668 14.024 13.078 15.177V20.904H9.14v-4.441h3.938v-3.385c0-3.85 2.312-5.977 5.854-5.977 1.696 0 3.47.3 3.47.3v3.779h-1.955c-1.925 0-2.526 1.184-2.526 2.399v2.884h4.299l-.688 4.441h-3.611V31.64c7.41-1.154 13.078-7.509 13.078-15.177z"/></symbol><symbol id="icon-twitter" viewBox="0 0 40 32"><path fill="#fafafa" style="fill:var(--color1,#fafafa)" d="M34.513 8.925c.024.335.024.671.024 1.006 0 10.23-7.856 22.018-22.214 22.018-4.423 0-8.533-1.27-11.989-3.474.628.072 1.233.096 1.885.096 3.65 0 7.01-1.222 9.693-3.306-3.432-.072-6.309-2.3-7.3-5.367.483.072.967.12 1.475.12.701 0 1.402-.096 2.055-.263-3.577-.719-6.261-3.833-6.261-7.595v-.096a7.916 7.916 0 0 0 3.529.982 7.716 7.716 0 0 1-3.481-6.445c0-1.437.387-2.755 1.064-3.905 3.843 4.696 9.621 7.762 16.099 8.098a8.65 8.65 0 0 1-.193-1.773c0-4.265 3.481-7.738 7.808-7.738 2.248 0 4.278.934 5.705 2.444a15.421 15.421 0 0 0 4.955-1.869 7.729 7.729 0 0 1-3.432 4.264 15.774 15.774 0 0 0 4.496-1.198 16.696 16.696 0 0 1-3.916 4.001z"/></symbol><symbol id="icon-instagram" viewBox="0 0 32 32"><path fill="#fafafa" style="fill:var(--color1,#fafafa)" d="M15.534 8.522c-4.321 0-7.806 3.454-7.806 7.737s3.485 7.737 7.806 7.737 7.806-3.454 7.806-7.737-3.485-7.736-7.806-7.736zm0 12.767c-2.792 0-5.075-2.256-5.075-5.03s2.276-5.03 5.075-5.03c2.799 0 5.075 2.256 5.075 5.03s-2.283 5.03-5.075 5.03zm9.945-13.083a1.809 1.809 0 0 1-1.821 1.805c-1.012 0-1.821-.808-1.821-1.805s.815-1.805 1.821-1.805 1.821.808 1.821 1.805zm5.17 1.831c-.115-2.417-.673-4.558-2.459-6.323-1.78-1.764-3.94-2.316-6.379-2.437-2.514-.141-10.048-.141-12.561 0-2.432.114-4.592.667-6.379 2.431S.534 7.613.412 10.031c-.143 2.491-.143 9.958 0 12.45.116 2.417.673 4.558 2.459 6.322s3.94 2.316 6.379 2.438c2.514.141 10.048.141 12.561 0 2.439-.114 4.599-.667 6.379-2.438 1.78-1.764 2.337-3.905 2.459-6.322.143-2.491.143-9.952 0-12.443zm-3.247 15.117a5.115 5.115 0 0 1-2.894 2.868c-2.004.788-6.759.606-8.974.606s-6.977.175-8.974-.606a5.115 5.115 0 0 1-2.894-2.868c-.795-1.986-.611-6.7-.611-8.895s-.177-6.915.611-8.895A5.115 5.115 0 0 1 6.56 4.496c2.004-.788 6.76-.606 8.974-.606s6.977-.175 8.974.606a5.118 5.118 0 0 1 2.894 2.868c.795 1.986.611 6.7.611 8.895s.183 6.915-.611 8.895z"/></symbol></defs></svg>