<svg aria-hidden="true" style="width:0;height:0;position:absolute;overflow:hidden" xmlns="http://www.w3.org/2000/svg"><defs><symbol id="icon-search" viewBox="0 0 36 32"><path d="m35.866 27.014-7.081-6.084a1.854 1.854 0 0 0-1.207-.427H26.42c1.96-2.154 3.125-4.863 3.125-7.811C29.545 5.681 22.933 0 14.772 0S-.001 5.681-.001 12.692s6.612 12.692 14.773 12.692c3.43 0 6.584-1.001 9.091-2.685v.995c0 .391.178.763.497 1.037l7.081 6.084c.668.574 1.747.574 2.408 0l2.01-1.727c.668-.574.668-1.501.007-2.075zm-21.093-6.511c-5.021 0-9.091-3.49-9.091-7.811 0-4.314 4.063-7.811 9.091-7.811 5.021 0 9.091 3.49 9.091 7.811 0 4.314-4.062 7.811-9.091 7.811z"/></symbol></defs></svg>