<svg aria-hidden="true" style="position: absolute; width: 0; height: 0; overflow: hidden;" version="1.1" xmlns="http://www.w3.org/2000/svg" xmlns:xlink="http://www.w3.org/1999/xlink">
<defs>
<symbol id="icon-search" viewBox="0 0 36 32">
<path d="M35.866 27.014l-7.081-6.084c-0.32-0.275-0.753-0.427-1.207-0.427h-1.158c1.96-2.154 3.125-4.863 3.125-7.811 0-7.011-6.612-12.692-14.773-12.692s-14.773 5.681-14.773 12.692 6.612 12.692 14.773 12.692c3.43 0 6.584-1.001 9.091-2.685v0.995c0 0.391 0.178 0.763 0.497 1.037l7.081 6.084c0.668 0.574 1.747 0.574 2.408 0l2.010-1.727c0.668-0.574 0.668-1.501 0.007-2.075zM14.773 20.503c-5.021 0-9.091-3.49-9.091-7.811 0-4.314 4.063-7.811 9.091-7.811 5.021 0 9.091 3.49 9.091 7.811 0 4.314-4.062 7.811-9.091 7.811z"></path>
</symbol>
<symbol id="icon-facebook" viewBox="0 0 32 32">
<path fill="#fafafa" style="fill: var(--color1, #fafafa)" d="M31 16.463c0-8.487-6.938-15.363-15.5-15.363s-15.5 6.876-15.5 15.363c0 7.668 5.668 14.024 13.078 15.177v-10.736h-3.938v-4.441h3.938v-3.385c0-3.85 2.312-5.977 5.854-5.977 1.696 0 3.47 0.3 3.47 0.3v3.779h-1.955c-1.925 0-2.526 1.184-2.526 2.399v2.884h4.299l-0.688 4.441h-3.611v10.736c7.41-1.154 13.078-7.509 13.078-15.177z"></path>
</symbol>
<symbol id="icon-twitter" viewBox="0 0 40 32">
<path fill="#fafafa" style="fill: var(--color1, #fafafa)" d="M34.513 8.925c0.024 0.335 0.024 0.671 0.024 1.006 0 10.23-7.856 22.018-22.214 22.018-4.423 0-8.533-1.27-11.989-3.474 0.628 0.072 1.233 0.096 1.885 0.096 3.65 0 7.010-1.222 9.693-3.306-3.432-0.072-6.309-2.3-7.3-5.367 0.483 0.072 0.967 0.12 1.475 0.12 0.701 0 1.402-0.096 2.055-0.263-3.577-0.719-6.261-3.833-6.261-7.595v-0.096c1.039 0.575 2.248 0.934 3.529 0.982-2.103-1.39-3.481-3.761-3.481-6.445 0-1.437 0.387-2.755 1.064-3.905 3.843 4.696 9.621 7.762 16.099 8.098-0.121-0.575-0.193-1.174-0.193-1.773 0-4.265 3.481-7.738 7.808-7.738 2.248 0 4.278 0.934 5.705 2.444 1.765-0.335 3.457-0.982 4.955-1.869-0.58 1.797-1.813 3.306-3.432 4.264 1.571-0.168 3.094-0.599 4.496-1.198-1.063 1.533-2.393 2.899-3.916 4.001z"></path>
</symbol>
<symbol id="icon-instagram" viewBox="0 0 32 32">
<path fill="#fafafa" style="fill: var(--color1, #fafafa)" d="M15.534 8.522c-4.321 0-7.806 3.454-7.806 7.737s3.485 7.737 7.806 7.737c4.321 0 7.806-3.454 7.806-7.737s-3.485-7.736-7.806-7.736zM15.534 21.289c-2.792 0-5.075-2.256-5.075-5.030s2.276-5.030 5.075-5.030c2.799 0 5.075 2.256 5.075 5.030s-2.283 5.030-5.075 5.030zM25.479 8.206c0 1.003-0.815 1.805-1.821 1.805-1.012 0-1.821-0.808-1.821-1.805s0.815-1.805 1.821-1.805c1.006 0 1.821 0.808 1.821 1.805zM30.649 10.037c-0.115-2.417-0.673-4.558-2.459-6.323-1.78-1.764-3.94-2.316-6.379-2.437-2.514-0.141-10.048-0.141-12.561 0-2.432 0.114-4.592 0.667-6.379 2.431s-2.337 3.905-2.459 6.323c-0.143 2.491-0.143 9.958 0 12.45 0.116 2.417 0.673 4.558 2.459 6.322s3.94 2.316 6.379 2.438c2.514 0.141 10.048 0.141 12.561 0 2.439-0.114 4.599-0.667 6.379-2.438 1.78-1.764 2.337-3.905 2.459-6.322 0.143-2.491 0.143-9.952 0-12.443zM27.402 25.154c-0.53 1.32-1.556 2.336-2.894 2.868-2.004 0.788-6.759 0.606-8.974 0.606s-6.977 0.175-8.974-0.606c-1.332-0.525-2.357-1.542-2.894-2.868-0.795-1.986-0.611-6.7-0.611-8.895s-0.177-6.915 0.611-8.895c0.53-1.32 1.556-2.336 2.894-2.868 2.004-0.788 6.76-0.606 8.974-0.606s6.977-0.175 8.974 0.606c1.331 0.525 2.357 1.542 2.894 2.868 0.795 1.986 0.611 6.7 0.611 8.895s0.183 6.915-0.611 8.895z"></path>
</symbol>
<symbol id="icon-arrow-right" viewBox="0 0 31 32">
<path d="M13.039 29.857l1.519 1.627c0.643 0.689 1.684 0.689 2.32 0l13.306-14.238c0.643-0.689 0.643-1.803 0-2.484l-13.306-14.245c-0.643-0.689-1.684-0.689-2.32 0l-1.519 1.627c-0.65 0.696-0.637 1.832 0.027 2.513l8.248 8.412h-19.671c-0.91 0-1.643 0.784-1.643 1.759v2.345c0 0.975 0.732 1.759 1.643 1.759h19.671l-8.248 8.412c-0.671 0.681-0.684 1.817-0.027 2.513z"></path>
</symbol>
<symbol id="icon-arrow-left" viewBox="0 0 31 32">
<path d="M17.628 29.857l-1.519 1.627c-0.643 0.689-1.684 0.689-2.32 0l-13.306-14.238c-0.643-0.689-0.643-1.803 0-2.484l13.306-14.245c0.643-0.689 1.684-0.689 2.32 0l1.519 1.627c0.65 0.696 0.637 1.832-0.027 2.513l-8.248 8.412h19.671c0.91 0 1.643 0.784 1.643 1.759v2.345c0 0.975-0.732 1.759-1.643 1.759h-19.671l8.248 8.412c0.671 0.681 0.685 1.817 0.027 2.513z"></path>
</symbol>
</defs>
</svg>
