<svg aria-hidden="true" style="position: absolute; width: 0; height: 0; overflow: hidden;" version="1.1" xmlns="http://www.w3.org/2000/svg" xmlns:xlink="http://www.w3.org/1999/xlink">
<defs>
<symbol id="icon-search" viewBox="0 0 36 32">
<path d="M35.866 27.014l-7.081-6.084c-0.32-0.275-0.753-0.427-1.207-0.427h-1.158c1.96-2.154 3.125-4.863 3.125-7.811 0-7.011-6.612-12.692-14.773-12.692s-14.773 5.681-14.773 12.692 6.612 12.692 14.773 12.692c3.43 0 6.584-1.001 9.091-2.685v0.995c0 0.391 0.178 0.763 0.497 1.037l7.081 6.084c0.668 0.574 1.747 0.574 2.408 0l2.010-1.727c0.668-0.574 0.668-1.501 0.007-2.075zM14.773 20.503c-5.021 0-9.091-3.49-9.091-7.811 0-4.314 4.063-7.811 9.091-7.811 5.021 0 9.091 3.49 9.091 7.811 0 4.314-4.062 7.811-9.091 7.811z"></path>
</symbol>
</defs>
</svg>
